<?xml version="1.0" encoding="utf-8"?>
<!-- Generator: Adobe Illustrator 25.3.1, SVG Export Plug-In . SVG Version: 6.00 Build 0)  -->
<svg version="1.1" id="圖層_1" xmlns="http://www.w3.org/2000/svg" xmlns:xlink="http://www.w3.org/1999/xlink" x="0px" y="0px"
	 viewBox="0 0 32 32" style="enable-background:new 0 0 32 32;" xml:space="preserve">
<style type="text/css">
	.st0{display:none;}
	.st1{display:inline;fill:#F48B35;}
	.st2{fill:#F48B35;}
</style>
<path class="st2" d="M23.7,0H8.3C3.7,0,0,3.7,0,8.3v15.4C0,28.3,3.7,32,8.3,32h15.4c4.6,0,8.3-3.7,8.3-8.3V8.3C32,3.7,28.3,0,23.7,0
	z M24.6,14.1H12.9l-2.5,2.6h12.7c1.9,0,3.4,1.6,3.4,3.6c0,1.8-1.3,3.3-3,3.5v2.6c0,0,0,1-1,0l-2.4-2.5H7.4c-1.9,0-3.4-1.6-3.4-3.6
	s1.5-3.6,3.4-3.6h2.1v-2.8c-1.3-0.5-2.3-1.8-2.3-3.3c0-2,1.5-3.6,3.4-3.6h13.9c1.9,0,3.4,1.6,3.4,3.6S26.4,14.1,24.6,14.1z"/>
</svg>
